<?xml version="1.0" encoding="utf-8" standalone="no"?>
<!DOCTYPE svg PUBLIC "-//W3C//DTD SVG 1.1//EN"
  "http://www.w3.org/Graphics/SVG/1.1/DTD/svg11.dtd">
<!-- Created with matplotlib (http://matplotlib.org/) -->
<svg height="288pt" version="1.1" viewBox="0 0 576 288" width="576pt" xmlns="http://www.w3.org/2000/svg" xmlns:xlink="http://www.w3.org/1999/xlink">
 <defs>
  <style type="text/css">
*{stroke-linecap:butt;stroke-linejoin:round;}
  </style>
 </defs>
 <g id="figure_1">
  <g id="patch_1">
   <path d="M 0 288 
L 576 288 
L 576 0 
L 0 0 
z
" style="fill:#ffffff;"/>
  </g>
  <g id="axes_1">
   <g id="patch_2">
    <path d="M 52.925 246.2 
L 554.356972 246.2 
L 554.356972 26.8 
L 52.925 26.8 
z
" style="fill:#ffffff;"/>
   </g>
   <g id="matplotlib.axis_1">
    <g id="xtick_1">
     <g id="line2d_1">
      <defs>
       <path d="M 0 0 
L 0 3.5 
" id="m9dc62915a4" style="stroke:#000000;stroke-width:0.8;"/>
      </defs>
      <g>
       <use style="stroke:#000000;stroke-width:0.8;" x="123.821846" xlink:href="#m9dc62915a4" y="246.2"/>
      </g>
     </g>
     <g id="text_1">
      <!-- 2017-06 -->
      <defs>
       <path d="M 19.1875 8.296875 
L 53.609375 8.296875 
L 53.609375 0 
L 7.328125 0 
L 7.328125 8.296875 
Q 12.9375 14.109375 22.625 23.890625 
Q 32.328125 33.6875 34.8125 36.53125 
Q 39.546875 41.84375 41.421875 45.53125 
Q 43.3125 49.21875 43.3125 52.78125 
Q 43.3125 58.59375 39.234375 62.25 
Q 35.15625 65.921875 28.609375 65.921875 
Q 23.96875 65.921875 18.8125 64.3125 
Q 13.671875 62.703125 7.8125 59.421875 
L 7.8125 69.390625 
Q 13.765625 71.78125 18.9375 73 
Q 24.125 74.21875 28.421875 74.21875 
Q 39.75 74.21875 46.484375 68.546875 
Q 53.21875 62.890625 53.21875 53.421875 
Q 53.21875 48.921875 51.53125 44.890625 
Q 49.859375 40.875 45.40625 35.40625 
Q 44.1875 33.984375 37.640625 27.21875 
Q 31.109375 20.453125 19.1875 8.296875 
" id="DejaVuSans-32"/>
       <path d="M 31.78125 66.40625 
Q 24.171875 66.40625 20.328125 58.90625 
Q 16.5 51.421875 16.5 36.375 
Q 16.5 21.390625 20.328125 13.890625 
Q 24.171875 6.390625 31.78125 6.390625 
Q 39.453125 6.390625 43.28125 13.890625 
Q 47.125 21.390625 47.125 36.375 
Q 47.125 51.421875 43.28125 58.90625 
Q 39.453125 66.40625 31.78125 66.40625 
M 31.78125 74.21875 
Q 44.046875 74.21875 50.515625 64.515625 
Q 56.984375 54.828125 56.984375 36.375 
Q 56.984375 17.96875 50.515625 8.265625 
Q 44.046875 -1.421875 31.78125 -1.421875 
Q 19.53125 -1.421875 13.0625 8.265625 
Q 6.59375 17.96875 6.59375 36.375 
Q 6.59375 54.828125 13.0625 64.515625 
Q 19.53125 74.21875 31.78125 74.21875 
" id="DejaVuSans-30"/>
       <path d="M 12.40625 8.296875 
L 28.515625 8.296875 
L 28.515625 63.921875 
L 10.984375 60.40625 
L 10.984375 69.390625 
L 28.421875 72.90625 
L 38.28125 72.90625 
L 38.28125 8.296875 
L 54.390625 8.296875 
L 54.390625 0 
L 12.40625 0 
z
" id="DejaVuSans-31"/>
       <path d="M 8.203125 72.90625 
L 55.078125 72.90625 
L 55.078125 68.703125 
L 28.609375 0 
L 18.3125 0 
L 43.21875 64.59375 
L 8.203125 64.59375 
z
" id="DejaVuSans-37"/>
       <path d="M 4.890625 31.390625 
L 31.203125 31.390625 
L 31.203125 23.390625 
L 4.890625 23.390625 
z
" id="DejaVuSans-2d"/>
       <path d="M 33.015625 40.375 
Q 26.375 40.375 22.484375 35.828125 
Q 18.609375 31.296875 18.609375 23.390625 
Q 18.609375 15.53125 22.484375 10.953125 
Q 26.375 6.390625 33.015625 6.390625 
Q 39.65625 6.390625 43.53125 10.953125 
Q 47.40625 15.53125 47.40625 23.390625 
Q 47.40625 31.296875 43.53125 35.828125 
Q 39.65625 40.375 33.015625 40.375 
M 52.59375 71.296875 
L 52.59375 62.3125 
Q 48.875 64.0625 45.09375 64.984375 
Q 41.3125 65.921875 37.59375 65.921875 
Q 27.828125 65.921875 22.671875 59.328125 
Q 17.53125 52.734375 16.796875 39.40625 
Q 19.671875 43.65625 24.015625 45.921875 
Q 28.375 48.1875 33.59375 48.1875 
Q 44.578125 48.1875 50.953125 41.515625 
Q 57.328125 34.859375 57.328125 23.390625 
Q 57.328125 12.15625 50.6875 5.359375 
Q 44.046875 -1.421875 33.015625 -1.421875 
Q 20.359375 -1.421875 13.671875 8.265625 
Q 6.984375 17.96875 6.984375 36.375 
Q 6.984375 53.65625 15.1875 63.9375 
Q 23.390625 74.21875 37.203125 74.21875 
Q 40.921875 74.21875 44.703125 73.484375 
Q 48.484375 72.75 52.59375 71.296875 
" id="DejaVuSans-36"/>
      </defs>
      <g transform="translate(102.93044 260.798437)scale(0.1 -0.1)">
       <use xlink:href="#DejaVuSans-32"/>
       <use x="63.623047" xlink:href="#DejaVuSans-30"/>
       <use x="127.246094" xlink:href="#DejaVuSans-31"/>
       <use x="190.869141" xlink:href="#DejaVuSans-37"/>
       <use x="254.492188" xlink:href="#DejaVuSans-2d"/>
       <use x="290.576172" xlink:href="#DejaVuSans-30"/>
       <use x="354.199219" xlink:href="#DejaVuSans-36"/>
      </g>
     </g>
    </g>
    <g id="xtick_2">
     <g id="line2d_2">
      <g>
       <use style="stroke:#000000;stroke-width:0.8;" x="192.542536" xlink:href="#m9dc62915a4" y="246.2"/>
      </g>
     </g>
     <g id="text_2">
      <!-- 2017-07 -->
      <g transform="translate(171.65113 260.798437)scale(0.1 -0.1)">
       <use xlink:href="#DejaVuSans-32"/>
       <use x="63.623047" xlink:href="#DejaVuSans-30"/>
       <use x="127.246094" xlink:href="#DejaVuSans-31"/>
       <use x="190.869141" xlink:href="#DejaVuSans-37"/>
       <use x="254.492188" xlink:href="#DejaVuSans-2d"/>
       <use x="290.576172" xlink:href="#DejaVuSans-30"/>
       <use x="354.199219" xlink:href="#DejaVuSans-37"/>
      </g>
     </g>
    </g>
    <g id="xtick_3">
     <g id="line2d_3">
      <g>
       <use style="stroke:#000000;stroke-width:0.8;" x="263.553917" xlink:href="#m9dc62915a4" y="246.2"/>
      </g>
     </g>
     <g id="text_3">
      <!-- 2017-08 -->
      <defs>
       <path d="M 31.78125 34.625 
Q 24.75 34.625 20.71875 30.859375 
Q 16.703125 27.09375 16.703125 20.515625 
Q 16.703125 13.921875 20.71875 10.15625 
Q 24.75 6.390625 31.78125 6.390625 
Q 38.8125 6.390625 42.859375 10.171875 
Q 46.921875 13.96875 46.921875 20.515625 
Q 46.921875 27.09375 42.890625 30.859375 
Q 38.875 34.625 31.78125 34.625 
M 21.921875 38.8125 
Q 15.578125 40.375 12.03125 44.71875 
Q 8.5 49.078125 8.5 55.328125 
Q 8.5 64.0625 14.71875 69.140625 
Q 20.953125 74.21875 31.78125 74.21875 
Q 42.671875 74.21875 48.875 69.140625 
Q 55.078125 64.0625 55.078125 55.328125 
Q 55.078125 49.078125 51.53125 44.71875 
Q 48 40.375 41.703125 38.8125 
Q 48.828125 37.15625 52.796875 32.3125 
Q 56.78125 27.484375 56.78125 20.515625 
Q 56.78125 9.90625 50.3125 4.234375 
Q 43.84375 -1.421875 31.78125 -1.421875 
Q 19.734375 -1.421875 13.25 4.234375 
Q 6.78125 9.90625 6.78125 20.515625 
Q 6.78125 27.484375 10.78125 32.3125 
Q 14.796875 37.15625 21.921875 38.8125 
M 18.3125 54.390625 
Q 18.3125 48.734375 21.84375 45.5625 
Q 25.390625 42.390625 31.78125 42.390625 
Q 38.140625 42.390625 41.71875 45.5625 
Q 45.3125 48.734375 45.3125 54.390625 
Q 45.3125 60.0625 41.71875 63.234375 
Q 38.140625 66.40625 31.78125 66.40625 
Q 25.390625 66.40625 21.84375 63.234375 
Q 18.3125 60.0625 18.3125 54.390625 
" id="DejaVuSans-38"/>
      </defs>
      <g transform="translate(242.66251 260.798437)scale(0.1 -0.1)">
       <use xlink:href="#DejaVuSans-32"/>
       <use x="63.623047" xlink:href="#DejaVuSans-30"/>
       <use x="127.246094" xlink:href="#DejaVuSans-31"/>
       <use x="190.869141" xlink:href="#DejaVuSans-37"/>
       <use x="254.492188" xlink:href="#DejaVuSans-2d"/>
       <use x="290.576172" xlink:href="#DejaVuSans-30"/>
       <use x="354.199219" xlink:href="#DejaVuSans-38"/>
      </g>
     </g>
    </g>
    <g id="xtick_4">
     <g id="line2d_4">
      <g>
       <use style="stroke:#000000;stroke-width:0.8;" x="334.565297" xlink:href="#m9dc62915a4" y="246.2"/>
      </g>
     </g>
     <g id="text_4">
      <!-- 2017-09 -->
      <defs>
       <path d="M 10.984375 1.515625 
L 10.984375 10.5 
Q 14.703125 8.734375 18.5 7.8125 
Q 22.3125 6.890625 25.984375 6.890625 
Q 35.75 6.890625 40.890625 13.453125 
Q 46.046875 20.015625 46.78125 33.40625 
Q 43.953125 29.203125 39.59375 26.953125 
Q 35.25 24.703125 29.984375 24.703125 
Q 19.046875 24.703125 12.671875 31.3125 
Q 6.296875 37.9375 6.296875 49.421875 
Q 6.296875 60.640625 12.9375 67.421875 
Q 19.578125 74.21875 30.609375 74.21875 
Q 43.265625 74.21875 49.921875 64.515625 
Q 56.59375 54.828125 56.59375 36.375 
Q 56.59375 19.140625 48.40625 8.859375 
Q 40.234375 -1.421875 26.421875 -1.421875 
Q 22.703125 -1.421875 18.890625 -0.6875 
Q 15.09375 0.046875 10.984375 1.515625 
M 30.609375 32.421875 
Q 37.25 32.421875 41.125 36.953125 
Q 45.015625 41.5 45.015625 49.421875 
Q 45.015625 57.28125 41.125 61.84375 
Q 37.25 66.40625 30.609375 66.40625 
Q 23.96875 66.40625 20.09375 61.84375 
Q 16.21875 57.28125 16.21875 49.421875 
Q 16.21875 41.5 20.09375 36.953125 
Q 23.96875 32.421875 30.609375 32.421875 
" id="DejaVuSans-39"/>
      </defs>
      <g transform="translate(313.673891 260.798437)scale(0.1 -0.1)">
       <use xlink:href="#DejaVuSans-32"/>
       <use x="63.623047" xlink:href="#DejaVuSans-30"/>
       <use x="127.246094" xlink:href="#DejaVuSans-31"/>
       <use x="190.869141" xlink:href="#DejaVuSans-37"/>
       <use x="254.492188" xlink:href="#DejaVuSans-2d"/>
       <use x="290.576172" xlink:href="#DejaVuSans-30"/>
       <use x="354.199219" xlink:href="#DejaVuSans-39"/>
      </g>
     </g>
    </g>
    <g id="xtick_5">
     <g id="line2d_5">
      <g>
       <use style="stroke:#000000;stroke-width:0.8;" x="403.285988" xlink:href="#m9dc62915a4" y="246.2"/>
      </g>
     </g>
     <g id="text_5">
      <!-- 2017-10 -->
      <g transform="translate(382.394581 260.798437)scale(0.1 -0.1)">
       <use xlink:href="#DejaVuSans-32"/>
       <use x="63.623047" xlink:href="#DejaVuSans-30"/>
       <use x="127.246094" xlink:href="#DejaVuSans-31"/>
       <use x="190.869141" xlink:href="#DejaVuSans-37"/>
       <use x="254.492188" xlink:href="#DejaVuSans-2d"/>
       <use x="290.576172" xlink:href="#DejaVuSans-31"/>
       <use x="354.199219" xlink:href="#DejaVuSans-30"/>
      </g>
     </g>
    </g>
    <g id="xtick_6">
     <g id="line2d_6">
      <g>
       <use style="stroke:#000000;stroke-width:0.8;" x="474.297368" xlink:href="#m9dc62915a4" y="246.2"/>
      </g>
     </g>
     <g id="text_6">
      <!-- 2017-11 -->
      <g transform="translate(453.405962 260.798437)scale(0.1 -0.1)">
       <use xlink:href="#DejaVuSans-32"/>
       <use x="63.623047" xlink:href="#DejaVuSans-30"/>
       <use x="127.246094" xlink:href="#DejaVuSans-31"/>
       <use x="190.869141" xlink:href="#DejaVuSans-37"/>
       <use x="254.492188" xlink:href="#DejaVuSans-2d"/>
       <use x="290.576172" xlink:href="#DejaVuSans-31"/>
       <use x="354.199219" xlink:href="#DejaVuSans-31"/>
      </g>
     </g>
    </g>
    <g id="xtick_7">
     <g id="line2d_7">
      <g>
       <use style="stroke:#000000;stroke-width:0.8;" x="543.018058" xlink:href="#m9dc62915a4" y="246.2"/>
      </g>
     </g>
     <g id="text_7">
      <!-- 2017-12 -->
      <g transform="translate(522.126652 260.798437)scale(0.1 -0.1)">
       <use xlink:href="#DejaVuSans-32"/>
       <use x="63.623047" xlink:href="#DejaVuSans-30"/>
       <use x="127.246094" xlink:href="#DejaVuSans-31"/>
       <use x="190.869141" xlink:href="#DejaVuSans-37"/>
       <use x="254.492188" xlink:href="#DejaVuSans-2d"/>
       <use x="290.576172" xlink:href="#DejaVuSans-31"/>
       <use x="354.199219" xlink:href="#DejaVuSans-32"/>
      </g>
     </g>
    </g>
    <g id="text_8">
     <!-- Date -->
     <defs>
      <path d="M 19.671875 64.796875 
L 19.671875 8.109375 
L 31.59375 8.109375 
Q 46.6875 8.109375 53.6875 14.9375 
Q 60.6875 21.78125 60.6875 36.53125 
Q 60.6875 51.171875 53.6875 57.984375 
Q 46.6875 64.796875 31.59375 64.796875 
z
M 9.8125 72.90625 
L 30.078125 72.90625 
Q 51.265625 72.90625 61.171875 64.09375 
Q 71.09375 55.28125 71.09375 36.53125 
Q 71.09375 17.671875 61.125 8.828125 
Q 51.171875 0 30.078125 0 
L 9.8125 0 
z
" id="DejaVuSans-44"/>
      <path d="M 34.28125 27.484375 
Q 23.390625 27.484375 19.1875 25 
Q 14.984375 22.515625 14.984375 16.5 
Q 14.984375 11.71875 18.140625 8.90625 
Q 21.296875 6.109375 26.703125 6.109375 
Q 34.1875 6.109375 38.703125 11.40625 
Q 43.21875 16.703125 43.21875 25.484375 
L 43.21875 27.484375 
z
M 52.203125 31.203125 
L 52.203125 0 
L 43.21875 0 
L 43.21875 8.296875 
Q 40.140625 3.328125 35.546875 0.953125 
Q 30.953125 -1.421875 24.3125 -1.421875 
Q 15.921875 -1.421875 10.953125 3.296875 
Q 6 8.015625 6 15.921875 
Q 6 25.140625 12.171875 29.828125 
Q 18.359375 34.515625 30.609375 34.515625 
L 43.21875 34.515625 
L 43.21875 35.40625 
Q 43.21875 41.609375 39.140625 45 
Q 35.0625 48.390625 27.6875 48.390625 
Q 23 48.390625 18.546875 47.265625 
Q 14.109375 46.140625 10.015625 43.890625 
L 10.015625 52.203125 
Q 14.9375 54.109375 19.578125 55.046875 
Q 24.21875 56 28.609375 56 
Q 40.484375 56 46.34375 49.84375 
Q 52.203125 43.703125 52.203125 31.203125 
" id="DejaVuSans-61"/>
      <path d="M 18.3125 70.21875 
L 18.3125 54.6875 
L 36.8125 54.6875 
L 36.8125 47.703125 
L 18.3125 47.703125 
L 18.3125 18.015625 
Q 18.3125 11.328125 20.140625 9.421875 
Q 21.96875 7.515625 27.59375 7.515625 
L 36.8125 7.515625 
L 36.8125 0 
L 27.59375 0 
Q 17.1875 0 13.234375 3.875 
Q 9.28125 7.765625 9.28125 18.015625 
L 9.28125 47.703125 
L 2.6875 47.703125 
L 2.6875 54.6875 
L 9.28125 54.6875 
L 9.28125 70.21875 
z
" id="DejaVuSans-74"/>
      <path d="M 56.203125 29.59375 
L 56.203125 25.203125 
L 14.890625 25.203125 
Q 15.484375 15.921875 20.484375 11.0625 
Q 25.484375 6.203125 34.421875 6.203125 
Q 39.59375 6.203125 44.453125 7.46875 
Q 49.3125 8.734375 54.109375 11.28125 
L 54.109375 2.78125 
Q 49.265625 0.734375 44.1875 -0.34375 
Q 39.109375 -1.421875 33.890625 -1.421875 
Q 20.796875 -1.421875 13.15625 6.1875 
Q 5.515625 13.8125 5.515625 26.8125 
Q 5.515625 40.234375 12.765625 48.109375 
Q 20.015625 56 32.328125 56 
Q 43.359375 56 49.78125 48.890625 
Q 56.203125 41.796875 56.203125 29.59375 
M 47.21875 32.234375 
Q 47.125 39.59375 43.09375 43.984375 
Q 39.0625 48.390625 32.421875 48.390625 
Q 24.90625 48.390625 20.390625 44.140625 
Q 15.875 39.890625 15.1875 32.171875 
z
" id="DejaVuSans-65"/>
     </defs>
     <g transform="translate(291.690205 274.476562)scale(0.1 -0.1)">
      <use xlink:href="#DejaVuSans-44"/>
      <use x="77.001953" xlink:href="#DejaVuSans-61"/>
      <use x="138.28125" xlink:href="#DejaVuSans-74"/>
      <use x="177.490234" xlink:href="#DejaVuSans-65"/>
     </g>
    </g>
   </g>
   <g id="matplotlib.axis_2">
    <g id="ytick_1">
     <g id="line2d_8">
      <defs>
       <path d="M 0 0 
L -3.5 0 
" id="md05bdaf0a7" style="stroke:#000000;stroke-width:0.8;"/>
      </defs>
      <g>
       <use style="stroke:#000000;stroke-width:0.8;" x="52.925" xlink:href="#md05bdaf0a7" y="224.895479"/>
      </g>
     </g>
     <g id="text_9">
      <!-- −20 -->
      <defs>
       <path d="M 10.59375 35.5 
L 73.1875 35.5 
L 73.1875 27.203125 
L 10.59375 27.203125 
z
" id="DejaVuSans-2212"/>
      </defs>
      <g transform="translate(24.820312 228.694698)scale(0.1 -0.1)">
       <use xlink:href="#DejaVuSans-2212"/>
       <use x="83.789062" xlink:href="#DejaVuSans-32"/>
       <use x="147.412109" xlink:href="#DejaVuSans-30"/>
      </g>
     </g>
    </g>
    <g id="ytick_2">
     <g id="line2d_9">
      <g>
       <use style="stroke:#000000;stroke-width:0.8;" x="52.925" xlink:href="#md05bdaf0a7" y="188.081063"/>
      </g>
     </g>
     <g id="text_10">
      <!-- −15 -->
      <defs>
       <path d="M 10.796875 72.90625 
L 49.515625 72.90625 
L 49.515625 64.59375 
L 19.828125 64.59375 
L 19.828125 46.734375 
Q 21.96875 47.46875 24.109375 47.828125 
Q 26.265625 48.1875 28.421875 48.1875 
Q 40.625 48.1875 47.75 41.5 
Q 54.890625 34.8125 54.890625 23.390625 
Q 54.890625 11.625 47.5625 5.09375 
Q 40.234375 -1.421875 26.90625 -1.421875 
Q 22.3125 -1.421875 17.546875 -0.640625 
Q 12.796875 0.140625 7.71875 1.703125 
L 7.71875 11.625 
Q 12.109375 9.234375 16.796875 8.0625 
Q 21.484375 6.890625 26.703125 6.890625 
Q 35.15625 6.890625 40.078125 11.328125 
Q 45.015625 15.765625 45.015625 23.390625 
Q 45.015625 31 40.078125 35.4375 
Q 35.15625 39.890625 26.703125 39.890625 
Q 22.75 39.890625 18.8125 39.015625 
Q 14.890625 38.140625 10.796875 36.28125 
z
" id="DejaVuSans-35"/>
      </defs>
      <g transform="translate(24.820312 191.880282)scale(0.1 -0.1)">
       <use xlink:href="#DejaVuSans-2212"/>
       <use x="83.789062" xlink:href="#DejaVuSans-31"/>
       <use x="147.412109" xlink:href="#DejaVuSans-35"/>
      </g>
     </g>
    </g>
    <g id="ytick_3">
     <g id="line2d_10">
      <g>
       <use style="stroke:#000000;stroke-width:0.8;" x="52.925" xlink:href="#md05bdaf0a7" y="151.266648"/>
      </g>
     </g>
     <g id="text_11">
      <!-- −10 -->
      <g transform="translate(24.820312 155.065866)scale(0.1 -0.1)">
       <use xlink:href="#DejaVuSans-2212"/>
       <use x="83.789062" xlink:href="#DejaVuSans-31"/>
       <use x="147.412109" xlink:href="#DejaVuSans-30"/>
      </g>
     </g>
    </g>
    <g id="ytick_4">
     <g id="line2d_11">
      <g>
       <use style="stroke:#000000;stroke-width:0.8;" x="52.925" xlink:href="#md05bdaf0a7" y="114.452232"/>
      </g>
     </g>
     <g id="text_12">
      <!-- −5 -->
      <g transform="translate(31.182812 118.25145)scale(0.1 -0.1)">
       <use xlink:href="#DejaVuSans-2212"/>
       <use x="83.789062" xlink:href="#DejaVuSans-35"/>
      </g>
     </g>
    </g>
    <g id="ytick_5">
     <g id="line2d_12">
      <g>
       <use style="stroke:#000000;stroke-width:0.8;" x="52.925" xlink:href="#md05bdaf0a7" y="77.637816"/>
      </g>
     </g>
     <g id="text_13">
      <!-- 0 -->
      <g transform="translate(39.5625 81.437035)scale(0.1 -0.1)">
       <use xlink:href="#DejaVuSans-30"/>
      </g>
     </g>
    </g>
    <g id="ytick_6">
     <g id="line2d_13">
      <g>
       <use style="stroke:#000000;stroke-width:0.8;" x="52.925" xlink:href="#md05bdaf0a7" y="40.8234"/>
      </g>
     </g>
     <g id="text_14">
      <!-- 5 -->
      <g transform="translate(39.5625 44.622619)scale(0.1 -0.1)">
       <use xlink:href="#DejaVuSans-35"/>
      </g>
     </g>
    </g>
    <g id="text_15">
     <!-- Cum. sum -->
     <defs>
      <path d="M 64.40625 67.28125 
L 64.40625 56.890625 
Q 59.421875 61.53125 53.78125 63.8125 
Q 48.140625 66.109375 41.796875 66.109375 
Q 29.296875 66.109375 22.65625 58.46875 
Q 16.015625 50.828125 16.015625 36.375 
Q 16.015625 21.96875 22.65625 14.328125 
Q 29.296875 6.6875 41.796875 6.6875 
Q 48.140625 6.6875 53.78125 8.984375 
Q 59.421875 11.28125 64.40625 15.921875 
L 64.40625 5.609375 
Q 59.234375 2.09375 53.4375 0.328125 
Q 47.65625 -1.421875 41.21875 -1.421875 
Q 24.65625 -1.421875 15.125 8.703125 
Q 5.609375 18.84375 5.609375 36.375 
Q 5.609375 53.953125 15.125 64.078125 
Q 24.65625 74.21875 41.21875 74.21875 
Q 47.75 74.21875 53.53125 72.484375 
Q 59.328125 70.75 64.40625 67.28125 
" id="DejaVuSans-43"/>
      <path d="M 8.5 21.578125 
L 8.5 54.6875 
L 17.484375 54.6875 
L 17.484375 21.921875 
Q 17.484375 14.15625 20.5 10.265625 
Q 23.53125 6.390625 29.59375 6.390625 
Q 36.859375 6.390625 41.078125 11.03125 
Q 45.3125 15.671875 45.3125 23.6875 
L 45.3125 54.6875 
L 54.296875 54.6875 
L 54.296875 0 
L 45.3125 0 
L 45.3125 8.40625 
Q 42.046875 3.421875 37.71875 1 
Q 33.40625 -1.421875 27.6875 -1.421875 
Q 18.265625 -1.421875 13.375 4.4375 
Q 8.5 10.296875 8.5 21.578125 
M 31.109375 56 
z
" id="DejaVuSans-75"/>
      <path d="M 52 44.1875 
Q 55.375 50.25 60.0625 53.125 
Q 64.75 56 71.09375 56 
Q 79.640625 56 84.28125 50.015625 
Q 88.921875 44.046875 88.921875 33.015625 
L 88.921875 0 
L 79.890625 0 
L 79.890625 32.71875 
Q 79.890625 40.578125 77.09375 44.375 
Q 74.3125 48.1875 68.609375 48.1875 
Q 61.625 48.1875 57.5625 43.546875 
Q 53.515625 38.921875 53.515625 30.90625 
L 53.515625 0 
L 44.484375 0 
L 44.484375 32.71875 
Q 44.484375 40.625 41.703125 44.40625 
Q 38.921875 48.1875 33.109375 48.1875 
Q 26.21875 48.1875 22.15625 43.53125 
Q 18.109375 38.875 18.109375 30.90625 
L 18.109375 0 
L 9.078125 0 
L 9.078125 54.6875 
L 18.109375 54.6875 
L 18.109375 46.1875 
Q 21.1875 51.21875 25.484375 53.609375 
Q 29.78125 56 35.6875 56 
Q 41.65625 56 45.828125 52.96875 
Q 50 49.953125 52 44.1875 
" id="DejaVuSans-6d"/>
      <path d="M 10.6875 12.40625 
L 21 12.40625 
L 21 0 
L 10.6875 0 
z
" id="DejaVuSans-2e"/>
      <path id="DejaVuSans-20"/>
      <path d="M 44.28125 53.078125 
L 44.28125 44.578125 
Q 40.484375 46.53125 36.375 47.5 
Q 32.28125 48.484375 27.875 48.484375 
Q 21.1875 48.484375 17.84375 46.4375 
Q 14.5 44.390625 14.5 40.28125 
Q 14.5 37.15625 16.890625 35.375 
Q 19.28125 33.59375 26.515625 31.984375 
L 29.59375 31.296875 
Q 39.15625 29.25 43.1875 25.515625 
Q 47.21875 21.78125 47.21875 15.09375 
Q 47.21875 7.46875 41.1875 3.015625 
Q 35.15625 -1.421875 24.609375 -1.421875 
Q 20.21875 -1.421875 15.453125 -0.5625 
Q 10.6875 0.296875 5.421875 2 
L 5.421875 11.28125 
Q 10.40625 8.6875 15.234375 7.390625 
Q 20.0625 6.109375 24.8125 6.109375 
Q 31.15625 6.109375 34.5625 8.28125 
Q 37.984375 10.453125 37.984375 14.40625 
Q 37.984375 18.0625 35.515625 20.015625 
Q 33.0625 21.96875 24.703125 23.78125 
L 21.578125 24.515625 
Q 13.234375 26.265625 9.515625 29.90625 
Q 5.8125 33.546875 5.8125 39.890625 
Q 5.8125 47.609375 11.28125 51.796875 
Q 16.75 56 26.8125 56 
Q 31.78125 56 36.171875 55.265625 
Q 40.578125 54.546875 44.28125 53.078125 
" id="DejaVuSans-73"/>
     </defs>
     <g transform="translate(18.740625 161.852344)rotate(-90)scale(0.1 -0.1)">
      <use xlink:href="#DejaVuSans-43"/>
      <use x="69.824219" xlink:href="#DejaVuSans-75"/>
      <use x="133.203125" xlink:href="#DejaVuSans-6d"/>
      <use x="230.615234" xlink:href="#DejaVuSans-2e"/>
      <use x="262.402344" xlink:href="#DejaVuSans-20"/>
      <use x="294.189453" xlink:href="#DejaVuSans-73"/>
      <use x="346.289062" xlink:href="#DejaVuSans-75"/>
      <use x="409.667969" xlink:href="#DejaVuSans-6d"/>
     </g>
    </g>
   </g>
   <g id="line2d_14">
    <path clip-path="url(#p9a8c901753)" d="M 75.717362 70.947922 
L 78.008052 73.78608 
L 80.298742 70.906895 
L 82.589431 72.256144 
L 84.880121 76.365905 
L 87.170811 82.342463 
L 89.4615 84.528572 
L 91.75219 89.00503 
L 94.04288 81.480837 
L 96.33357 79.807842 
L 98.624259 85.063966 
L 100.914949 92.651665 
L 103.205639 96.226751 
L 105.496328 96.465029 
L 107.787018 91.514644 
L 110.077708 97.333155 
L 112.368397 107.224738 
L 114.659087 107.752111 
L 116.949777 108.775548 
L 119.240466 111.471696 
L 121.531156 108.803692 
L 123.821846 97.98448 
L 126.112535 102.253008 
L 128.403225 113.391742 
L 130.693915 119.455886 
L 132.984605 136.327403 
L 135.275294 136.943708 
L 137.565984 145.741089 
L 139.856674 146.64194 
L 144.438053 138.282765 
L 146.728743 144.06907 
L 149.019432 145.884776 
L 151.310122 144.422713 
L 153.600812 149.525335 
L 155.891501 157.156384 
L 158.182191 158.328378 
L 160.472881 161.264105 
L 162.76357 165.14762 
L 165.05426 159.038954 
L 167.34495 162.509483 
L 169.63564 147.949079 
L 171.926329 136.613906 
L 174.217019 142.474404 
L 176.507709 145.427932 
L 178.798398 147.380276 
L 181.089088 151.450916 
L 183.379778 151.590698 
L 185.670467 148.84961 
L 187.961157 164.093208 
L 190.251847 160.319039 
L 192.542536 170.814067 
L 194.833226 174.364639 
L 197.123916 161.473292 
L 199.414605 155.78098 
L 201.705295 137.455968 
L 203.995985 139.575197 
L 206.286675 128.751963 
L 208.577364 128.96933 
L 210.868054 123.223975 
L 213.158744 138.10076 
L 215.449433 146.61015 
L 217.740123 141.068729 
L 220.030813 134.337938 
L 222.321502 124.646404 
L 224.612192 124.00254 
L 226.902882 124.320039 
L 229.193571 125.671283 
L 231.484261 123.333446 
L 233.774951 121.266441 
L 236.06564 106.031189 
L 238.35633 108.446952 
L 240.64702 107.038849 
L 242.937709 95.962218 
L 245.228399 104.475945 
L 247.519089 110.652603 
L 249.809779 107.86185 
L 252.100468 99.100909 
L 254.391158 100.491571 
L 256.681848 102.730119 
L 258.972537 99.153397 
L 261.263227 97.233062 
L 263.553917 107.550964 
L 265.844606 111.409609 
L 268.135296 119.830119 
L 270.425986 116.506077 
L 272.716675 116.422239 
L 275.007365 123.232226 
L 277.298055 107.948556 
L 279.588744 109.671546 
L 281.879434 119.226986 
L 284.170124 124.840866 
L 286.460814 141.089285 
L 288.751503 144.418707 
L 293.332883 137.305528 
L 295.623572 146.66527 
L 297.914262 154.966107 
L 300.204952 146.673985 
L 302.495641 131.171679 
L 304.786331 131.353219 
L 307.077021 135.222854 
L 309.36771 146.800991 
L 311.6584 157.669404 
L 313.94909 154.344944 
L 316.239779 151.357807 
L 318.530469 150.407054 
L 320.821159 157.361895 
L 323.111849 159.410167 
L 325.402538 160.219042 
L 327.693228 164.270286 
L 329.983918 165.499294 
L 332.274607 162.284401 
L 334.565297 189.378678 
L 336.855987 180.966802 
L 339.146676 187.074152 
L 341.437366 185.020852 
L 343.728056 182.62053 
L 346.018745 180.959214 
L 348.309435 167.85902 
L 350.600125 163.704474 
L 352.890814 163.074717 
L 355.181504 156.802904 
L 357.472194 176.375913 
L 359.762883 158.700382 
L 362.053573 154.40406 
L 364.344263 152.29703 
L 366.634953 144.240131 
L 368.925642 143.951771 
L 371.216332 151.857484 
L 373.507022 157.421274 
L 375.797711 151.446912 
L 378.088401 152.642409 
L 380.379091 154.713473 
L 382.66978 155.338636 
L 384.96047 154.523482 
L 387.25116 164.249181 
L 389.541849 162.213497 
L 391.832539 159.596592 
L 394.123229 167.480149 
L 396.413918 169.156465 
L 398.704608 162.195582 
L 400.995298 172.383419 
L 403.285988 168.074254 
L 405.576677 174.304352 
L 407.867367 172.653094 
L 410.158057 161.516913 
L 412.448746 159.659795 
L 414.739436 153.482675 
L 417.030126 150.684225 
L 419.320815 140.259649 
L 421.611505 132.533322 
L 423.902195 123.725744 
L 426.192884 118.286975 
L 428.483574 113.868415 
L 430.774264 101.603106 
L 433.064953 100.088647 
L 435.355643 101.079636 
L 437.646333 96.240277 
L 439.937023 105.184969 
L 442.227712 106.512592 
L 444.518402 102.9533 
L 446.809092 102.332764 
L 449.099781 112.160539 
L 451.390471 107.86743 
L 453.681161 114.884631 
L 455.97185 128.111845 
L 458.26254 132.218759 
L 460.55323 142.017435 
L 462.843919 142.395786 
L 465.134609 152.661327 
L 467.425299 145.648899 
L 469.715988 128.814599 
L 472.006678 137.513922 
L 474.297368 126.968481 
L 476.588058 125.498353 
L 478.878747 118.382713 
L 481.169437 115.684566 
L 483.460127 116.29371 
L 485.750816 105.529812 
L 488.041506 101.897304 
L 490.332196 104.047357 
L 492.622885 97.443291 
L 494.913575 106.539086 
L 497.204265 97.32233 
L 499.494954 101.450099 
L 501.785644 111.290501 
L 504.076334 113.418032 
L 506.367023 106.871139 
L 508.657713 113.071506 
L 510.948403 123.433793 
L 515.529782 127.160569 
L 517.820472 117.828225 
L 520.111162 101.527888 
L 522.401851 107.008076 
L 524.692541 107.436713 
L 526.983231 103.232938 
L 529.27392 103.389927 
L 531.56461 99.641771 
L 531.56461 99.641771 
" style="fill:none;stroke:#1f77b4;stroke-linecap:square;stroke-width:2;"/>
   </g>
   <g id="line2d_15">
    <path clip-path="url(#p9a8c901753)" d="M 75.717362 72.91358 
L 78.008052 80.377281 
L 80.298742 81.57132 
L 82.589431 80.695532 
L 84.880121 74.48338 
L 87.170811 83.777774 
L 89.4615 86.622282 
L 91.75219 82.979056 
L 94.04288 78.439361 
L 96.33357 91.771582 
L 98.624259 100.098224 
L 100.914949 102.163324 
L 103.205639 102.165684 
L 105.496328 118.250514 
L 107.787018 124.903804 
L 110.077708 128.122447 
L 112.368397 136.083207 
L 114.659087 140.386715 
L 116.949777 151.777942 
L 119.240466 149.509916 
L 121.531156 151.572926 
L 123.821846 130.634986 
L 126.112535 135.40716 
L 128.403225 131.409554 
L 130.693915 119.746409 
L 132.984605 119.556829 
L 135.275294 122.960178 
L 137.565984 137.590468 
L 139.856674 146.140778 
L 142.147363 141.031821 
L 144.438053 140.208599 
L 146.728743 154.602151 
L 149.019432 155.974868 
L 151.310122 163.780857 
L 153.600812 163.012471 
L 155.891501 156.535101 
L 158.182191 155.531969 
L 160.472881 163.132678 
L 162.76357 169.163336 
L 165.05426 178.081758 
L 167.34495 172.277761 
L 169.63564 176.808622 
L 174.217019 189.320996 
L 176.507709 198.72572 
L 178.798398 188.486939 
L 181.089088 189.031839 
L 183.379778 190.269445 
L 185.670467 177.594831 
L 187.961157 172.160952 
L 190.251847 169.563533 
L 194.833226 148.22631 
L 197.123916 146.808964 
L 199.414605 151.587025 
L 201.705295 155.271438 
L 203.995985 151.564236 
L 206.286675 143.549247 
L 208.577364 156.522911 
L 210.868054 156.035671 
L 213.158744 161.567034 
L 215.449433 166.530379 
L 217.740123 158.382667 
L 220.030813 150.70703 
L 222.321502 161.71464 
L 224.612192 151.843993 
L 226.902882 156.654128 
L 229.193571 143.201212 
L 231.484261 140.580585 
L 233.774951 144.18542 
L 236.06564 135.067614 
L 238.35633 131.780606 
L 240.64702 127.523228 
L 242.937709 131.191337 
L 245.228399 144.004783 
L 247.519089 136.995721 
L 249.809779 126.995709 
L 252.100468 136.353754 
L 254.391158 128.907805 
L 256.681848 126.845151 
L 258.972537 129.294151 
L 261.263227 125.739031 
L 263.553917 125.798566 
L 265.844606 122.023814 
L 268.135296 123.588585 
L 270.425986 125.903671 
L 272.716675 142.053396 
L 275.007365 137.931323 
L 279.588744 127.457163 
L 281.879434 120.31498 
L 284.170124 125.380508 
L 286.460814 134.032577 
L 288.751503 128.372634 
L 291.042193 124.683643 
L 293.332883 119.622595 
L 295.623572 118.096068 
L 297.914262 118.011564 
L 300.204952 124.030443 
L 302.495641 137.008854 
L 304.786331 131.450177 
L 307.077021 127.776682 
L 311.6584 144.055038 
L 313.94909 143.956235 
L 316.239779 163.80696 
L 318.530469 151.245048 
L 320.821159 147.26367 
L 323.111849 154.110235 
L 325.402538 154.509903 
L 329.983918 129.304806 
L 332.274607 129.697103 
L 334.565297 129.641113 
L 336.855987 118.660098 
L 339.146676 122.250406 
L 341.437366 118.312868 
L 343.728056 108.48235 
L 346.018745 115.374401 
L 348.309435 113.725196 
L 350.600125 116.459016 
L 352.890814 128.978401 
L 355.181504 134.783247 
L 357.472194 145.386602 
L 359.762883 138.791667 
L 362.053573 144.29851 
L 364.344263 146.988838 
L 366.634953 140.549364 
L 368.925642 142.546934 
L 371.216332 149.745976 
L 373.507022 159.56201 
L 375.797711 164.327897 
L 378.088401 167.472334 
L 380.379091 169.277925 
L 382.66978 164.850589 
L 384.96047 165.718507 
L 387.25116 151.060163 
L 389.541849 144.926511 
L 391.832539 142.800444 
L 394.123229 148.590322 
L 396.413918 164.171414 
L 400.995298 172.68555 
L 403.285988 177.370805 
L 405.576677 181.444117 
L 407.867367 183.444199 
L 410.158057 188.350162 
L 412.448746 186.71886 
L 414.739436 191.053945 
L 417.030126 186.485653 
L 419.320815 194.845214 
L 421.611505 187.245543 
L 423.902195 171.591215 
L 426.192884 178.753825 
L 428.483574 175.783483 
L 430.774264 178.327512 
L 433.064953 183.673178 
L 435.355643 189.436904 
L 437.646333 197.191876 
L 439.937023 196.046045 
L 442.227712 205.610115 
L 444.518402 201.064158 
L 446.809092 213.569775 
L 449.099781 214.425172 
L 451.390471 220.969468 
L 453.681161 217.977988 
L 455.97185 229.278025 
L 458.26254 234.241499 
L 460.55323 236.227273 
L 462.843919 228.958174 
L 465.134609 218.214831 
L 467.425299 209.406944 
L 469.715988 218.403383 
L 472.006678 220.958519 
L 474.297368 218.180495 
L 476.588058 212.558725 
L 478.878747 214.764293 
L 481.169437 218.133403 
L 483.460127 219.959111 
L 485.750816 217.8236 
L 488.041506 220.177285 
L 490.332196 216.09298 
L 492.622885 207.412101 
L 494.913575 207.165075 
L 497.204265 201.318019 
L 499.494954 214.853933 
L 501.785644 217.329524 
L 504.076334 217.048912 
L 506.367023 203.689668 
L 508.657713 199.829227 
L 510.948403 202.205319 
L 513.239092 187.856911 
L 515.529782 189.255147 
L 517.820472 202.845426 
L 520.111162 202.240956 
L 522.401851 204.613962 
L 524.692541 226.21267 
L 526.983231 217.912974 
L 529.27392 208.840884 
L 531.56461 220.811016 
L 531.56461 220.811016 
" style="fill:none;stroke:#ff7f0e;stroke-linecap:square;stroke-width:2;"/>
   </g>
   <g id="line2d_16">
    <path clip-path="url(#p9a8c901753)" d="M 75.717362 82.692019 
L 78.008052 86.1558 
L 80.298742 82.775565 
L 82.589431 80.895887 
L 84.880121 85.145173 
L 87.170811 87.219889 
L 89.4615 95.33556 
L 91.75219 91.79871 
L 94.04288 95.463847 
L 96.33357 91.601865 
L 98.624259 105.291201 
L 100.914949 114.777798 
L 103.205639 115.863172 
L 105.496328 107.182936 
L 107.787018 105.01368 
L 110.077708 97.86789 
L 112.368397 87.390275 
L 114.659087 100.636579 
L 116.949777 91.21197 
L 119.240466 98.023273 
L 121.531156 82.650064 
L 123.821846 79.2625 
L 126.112535 68.572961 
L 128.403225 68.273251 
L 130.693915 59.828608 
L 132.984605 67.35196 
L 135.275294 64.898003 
L 137.565984 62.009677 
L 139.856674 67.432027 
L 142.147363 64.008508 
L 144.438053 58.02213 
L 146.728743 64.418469 
L 149.019432 62.826372 
L 151.310122 60.624974 
L 153.600812 49.459314 
L 155.891501 58.539622 
L 158.182191 44.268657 
L 160.472881 47.268827 
L 162.76357 36.772727 
L 165.05426 58.40069 
L 167.34495 56.717162 
L 169.63564 63.379142 
L 171.926329 71.968205 
L 174.217019 71.486438 
L 176.507709 70.52861 
L 178.798398 73.643749 
L 181.089088 77.310472 
L 183.379778 78.077455 
L 185.670467 64.37495 
L 187.961157 70.755051 
L 190.251847 65.292142 
L 192.542536 62.052673 
L 194.833226 70.730457 
L 197.123916 87.081692 
L 199.414605 94.413193 
L 201.705295 105.596159 
L 203.995985 111.101439 
L 206.286675 107.130296 
L 208.577364 108.143574 
L 210.868054 123.910953 
L 213.158744 122.946532 
L 215.449433 130.000924 
L 217.740123 132.317387 
L 220.030813 125.66662 
L 222.321502 138.832691 
L 224.612192 138.199415 
L 226.902882 141.095993 
L 229.193571 138.795516 
L 231.484261 138.572433 
L 233.774951 139.255822 
L 236.06564 140.509964 
L 238.35633 133.203009 
L 240.64702 134.036844 
L 242.937709 134.401545 
L 245.228399 133.678689 
L 247.519089 135.958558 
L 249.809779 141.734168 
L 252.100468 133.12722 
L 254.391158 130.430863 
L 256.681848 121.647766 
L 258.972537 127.050973 
L 263.553917 161.636816 
L 265.844606 155.445809 
L 268.135296 153.233967 
L 272.716675 178.401244 
L 275.007365 170.697229 
L 277.298055 171.343845 
L 279.588744 166.618988 
L 281.879434 171.540071 
L 284.170124 175.74023 
L 286.460814 171.29945 
L 288.751503 179.643323 
L 291.042193 181.382374 
L 293.332883 177.998912 
L 295.623572 178.962729 
L 297.914262 179.22744 
L 300.204952 173.819386 
L 302.495641 163.88166 
L 304.786331 159.844233 
L 307.077021 154.835144 
L 309.36771 167.499538 
L 311.6584 169.308699 
L 313.94909 162.332205 
L 316.239779 163.044559 
L 318.530469 151.843474 
L 320.821159 158.03935 
L 323.111849 153.944501 
L 325.402538 152.035702 
L 327.693228 159.982042 
L 329.983918 160.052055 
L 332.274607 154.909996 
L 334.565297 156.13241 
L 336.855987 141.127985 
L 339.146676 145.867717 
L 341.437366 140.230261 
L 343.728056 142.358837 
L 346.018745 144.807004 
L 348.309435 140.335079 
L 350.600125 134.971817 
L 352.890814 135.242737 
L 355.181504 133.677226 
L 357.472194 125.081658 
L 359.762883 114.10542 
L 362.053573 114.841276 
L 364.344263 121.858151 
L 366.634953 127.937325 
L 368.925642 135.598447 
L 371.216332 129.223518 
L 373.507022 121.785785 
L 375.797711 123.222758 
L 378.088401 121.523648 
L 380.379091 121.373126 
L 382.66978 120.114847 
L 384.96047 108.188882 
L 389.541849 122.971697 
L 391.832539 133.423112 
L 394.123229 139.753485 
L 396.413918 135.919725 
L 398.704608 128.174977 
L 400.995298 124.18173 
L 403.285988 119.899927 
L 405.576677 113.176613 
L 410.158057 125.727549 
L 412.448746 118.061918 
L 414.739436 107.166752 
L 417.030126 107.354631 
L 419.320815 106.508961 
L 421.611505 112.407072 
L 423.902195 114.246755 
L 428.483574 100.802631 
L 430.774264 86.476237 
L 433.064953 88.211381 
L 435.355643 95.075738 
L 437.646333 85.746684 
L 439.937023 97.008223 
L 442.227712 92.138696 
L 444.518402 86.4634 
L 446.809092 85.060409 
L 449.099781 88.039797 
L 451.390471 88.290291 
L 453.681161 81.719531 
L 455.97185 80.553483 
L 458.26254 75.702351 
L 460.55323 73.748067 
L 462.843919 66.46771 
L 465.134609 77.425576 
L 467.425299 78.853315 
L 469.715988 89.969888 
L 472.006678 88.603728 
L 474.297368 88.786994 
L 476.588058 83.430653 
L 481.169437 101.551227 
L 483.460127 95.138329 
L 485.750816 103.916839 
L 488.041506 105.845626 
L 490.332196 103.155246 
L 492.622885 104.287174 
L 494.913575 94.826528 
L 497.204265 91.527365 
L 499.494954 83.564997 
L 501.785644 88.510317 
L 504.076334 103.560021 
L 506.367023 97.522486 
L 508.657713 89.790904 
L 510.948403 83.81201 
L 513.239092 80.195453 
L 515.529782 75.724412 
L 517.820472 60.205901 
L 520.111162 62.425598 
L 522.401851 64.372553 
L 524.692541 72.951471 
L 526.983231 68.423059 
L 529.27392 64.678474 
L 531.56461 59.120413 
L 531.56461 59.120413 
" style="fill:none;stroke:#2ca02c;stroke-linecap:square;stroke-width:2;"/>
   </g>
   <g id="patch_3">
    <path d="M 52.925 246.2 
L 52.925 26.8 
" style="fill:none;stroke:#000000;stroke-linecap:square;stroke-linejoin:miter;stroke-width:0.8;"/>
   </g>
   <g id="patch_4">
    <path d="M 554.356972 246.2 
L 554.356972 26.8 
" style="fill:none;stroke:#000000;stroke-linecap:square;stroke-linejoin:miter;stroke-width:0.8;"/>
   </g>
   <g id="patch_5">
    <path d="M 52.925 246.2 
L 554.356972 246.2 
" style="fill:none;stroke:#000000;stroke-linecap:square;stroke-linejoin:miter;stroke-width:0.8;"/>
   </g>
   <g id="patch_6">
    <path d="M 52.925 26.8 
L 554.356972 26.8 
" style="fill:none;stroke:#000000;stroke-linecap:square;stroke-linejoin:miter;stroke-width:0.8;"/>
   </g>
   <g id="text_16">
    <!-- Random trends -->
    <defs>
     <path d="M 44.390625 34.1875 
Q 47.5625 33.109375 50.5625 29.59375 
Q 53.5625 26.078125 56.59375 19.921875 
L 66.609375 0 
L 56 0 
L 46.6875 18.703125 
Q 43.0625 26.03125 39.671875 28.421875 
Q 36.28125 30.8125 30.421875 30.8125 
L 19.671875 30.8125 
L 19.671875 0 
L 9.8125 0 
L 9.8125 72.90625 
L 32.078125 72.90625 
Q 44.578125 72.90625 50.734375 67.671875 
Q 56.890625 62.453125 56.890625 51.90625 
Q 56.890625 45.015625 53.6875 40.46875 
Q 50.484375 35.9375 44.390625 34.1875 
M 19.671875 64.796875 
L 19.671875 38.921875 
L 32.078125 38.921875 
Q 39.203125 38.921875 42.84375 42.21875 
Q 46.484375 45.515625 46.484375 51.90625 
Q 46.484375 58.296875 42.84375 61.546875 
Q 39.203125 64.796875 32.078125 64.796875 
z
" id="DejaVuSans-52"/>
     <path d="M 54.890625 33.015625 
L 54.890625 0 
L 45.90625 0 
L 45.90625 32.71875 
Q 45.90625 40.484375 42.875 44.328125 
Q 39.84375 48.1875 33.796875 48.1875 
Q 26.515625 48.1875 22.3125 43.546875 
Q 18.109375 38.921875 18.109375 30.90625 
L 18.109375 0 
L 9.078125 0 
L 9.078125 54.6875 
L 18.109375 54.6875 
L 18.109375 46.1875 
Q 21.34375 51.125 25.703125 53.5625 
Q 30.078125 56 35.796875 56 
Q 45.21875 56 50.046875 50.171875 
Q 54.890625 44.34375 54.890625 33.015625 
" id="DejaVuSans-6e"/>
     <path d="M 45.40625 46.390625 
L 45.40625 75.984375 
L 54.390625 75.984375 
L 54.390625 0 
L 45.40625 0 
L 45.40625 8.203125 
Q 42.578125 3.328125 38.25 0.953125 
Q 33.9375 -1.421875 27.875 -1.421875 
Q 17.96875 -1.421875 11.734375 6.484375 
Q 5.515625 14.40625 5.515625 27.296875 
Q 5.515625 40.1875 11.734375 48.09375 
Q 17.96875 56 27.875 56 
Q 33.9375 56 38.25 53.625 
Q 42.578125 51.265625 45.40625 46.390625 
M 14.796875 27.296875 
Q 14.796875 17.390625 18.875 11.75 
Q 22.953125 6.109375 30.078125 6.109375 
Q 37.203125 6.109375 41.296875 11.75 
Q 45.40625 17.390625 45.40625 27.296875 
Q 45.40625 37.203125 41.296875 42.84375 
Q 37.203125 48.484375 30.078125 48.484375 
Q 22.953125 48.484375 18.875 42.84375 
Q 14.796875 37.203125 14.796875 27.296875 
" id="DejaVuSans-64"/>
     <path d="M 30.609375 48.390625 
Q 23.390625 48.390625 19.1875 42.75 
Q 14.984375 37.109375 14.984375 27.296875 
Q 14.984375 17.484375 19.15625 11.84375 
Q 23.34375 6.203125 30.609375 6.203125 
Q 37.796875 6.203125 41.984375 11.859375 
Q 46.1875 17.53125 46.1875 27.296875 
Q 46.1875 37.015625 41.984375 42.703125 
Q 37.796875 48.390625 30.609375 48.390625 
M 30.609375 56 
Q 42.328125 56 49.015625 48.375 
Q 55.71875 40.765625 55.71875 27.296875 
Q 55.71875 13.875 49.015625 6.21875 
Q 42.328125 -1.421875 30.609375 -1.421875 
Q 18.84375 -1.421875 12.171875 6.21875 
Q 5.515625 13.875 5.515625 27.296875 
Q 5.515625 40.765625 12.171875 48.375 
Q 18.84375 56 30.609375 56 
" id="DejaVuSans-6f"/>
     <path d="M 41.109375 46.296875 
Q 39.59375 47.171875 37.8125 47.578125 
Q 36.03125 48 33.890625 48 
Q 26.265625 48 22.1875 43.046875 
Q 18.109375 38.09375 18.109375 28.8125 
L 18.109375 0 
L 9.078125 0 
L 9.078125 54.6875 
L 18.109375 54.6875 
L 18.109375 46.1875 
Q 20.953125 51.171875 25.484375 53.578125 
Q 30.03125 56 36.53125 56 
Q 37.453125 56 38.578125 55.875 
Q 39.703125 55.765625 41.0625 55.515625 
z
" id="DejaVuSans-72"/>
    </defs>
    <g transform="translate(257.516924 20.8)scale(0.12 -0.12)">
     <use xlink:href="#DejaVuSans-52"/>
     <use x="69.451172" xlink:href="#DejaVuSans-61"/>
     <use x="130.730469" xlink:href="#DejaVuSans-6e"/>
     <use x="194.109375" xlink:href="#DejaVuSans-64"/>
     <use x="257.585938" xlink:href="#DejaVuSans-6f"/>
     <use x="318.767578" xlink:href="#DejaVuSans-6d"/>
     <use x="416.179688" xlink:href="#DejaVuSans-20"/>
     <use x="447.966797" xlink:href="#DejaVuSans-74"/>
     <use x="487.175781" xlink:href="#DejaVuSans-72"/>
     <use x="528.257812" xlink:href="#DejaVuSans-65"/>
     <use x="589.78125" xlink:href="#DejaVuSans-6e"/>
     <use x="653.160156" xlink:href="#DejaVuSans-64"/>
     <use x="716.636719" xlink:href="#DejaVuSans-73"/>
    </g>
   </g>
   <g id="legend_1">
    <g id="patch_7">
     <path d="M 58.756 70.277394 
L 100.456761 70.277394 
Q 102.122761 70.277394 102.122761 68.611394 
L 102.122761 32.631 
Q 102.122761 30.965 100.456761 30.965 
L 58.756 30.965 
Q 57.09 30.965 57.09 32.631 
L 57.09 68.611394 
Q 57.09 70.277394 58.756 70.277394 
z
" style="fill:#ffffff;opacity:0.5;stroke:#cccccc;stroke-linejoin:miter;"/>
    </g>
    <g id="line2d_17">
     <path d="M 60.422 37.755252 
L 77.082 37.755252 
" style="fill:none;stroke:#1f77b4;stroke-linecap:square;stroke-width:2;"/>
    </g>
    <g id="line2d_18"/>
    <g id="text_17">
     <!-- foo -->
     <defs>
      <path d="M 51.90625 75.984375 
L 51.90625 68.5 
L 41.703125 68.5 
Q 36.859375 68.5 34.984375 66.515625 
Q 33.109375 64.546875 33.109375 59.515625 
L 33.109375 54.6875 
L 51.90625 54.6875 
L 51.90625 47.703125 
L 33.109375 47.703125 
L 33.109375 0 
L 24.125 0 
L 24.125 47.703125 
L 9.515625 47.703125 
L 9.515625 54.6875 
L 24.125 54.6875 
L 24.125 58.5 
Q 24.125 67.484375 28.25 71.734375 
Q 32.375 75.984375 41.109375 75.984375 
z
" id="DejaVuSansMono-66"/>
      <path d="M 30.078125 48.390625 
Q 23.25 48.390625 19.734375 43.0625 
Q 16.21875 37.75 16.21875 27.296875 
Q 16.21875 16.890625 19.734375 11.546875 
Q 23.25 6.203125 30.078125 6.203125 
Q 36.96875 6.203125 40.484375 11.546875 
Q 44 16.890625 44 27.296875 
Q 44 37.75 40.484375 43.0625 
Q 36.96875 48.390625 30.078125 48.390625 
M 30.078125 56 
Q 41.453125 56 47.484375 48.625 
Q 53.515625 41.265625 53.515625 27.296875 
Q 53.515625 13.28125 47.5 5.921875 
Q 41.5 -1.421875 30.078125 -1.421875 
Q 18.703125 -1.421875 12.6875 5.921875 
Q 6.6875 13.28125 6.6875 27.296875 
Q 6.6875 41.265625 12.6875 48.625 
Q 18.703125 56 30.078125 56 
" id="DejaVuSansMono-6f"/>
     </defs>
     <g transform="translate(83.746 40.670752)scale(0.0833 -0.0833)">
      <use xlink:href="#DejaVuSansMono-66"/>
      <use x="60.205078" xlink:href="#DejaVuSansMono-6f"/>
      <use x="120.410156" xlink:href="#DejaVuSansMono-6f"/>
     </g>
    </g>
    <g id="line2d_19">
     <path d="M 60.422 50.026383 
L 77.082 50.026383 
" style="fill:none;stroke:#ff7f0e;stroke-linecap:square;stroke-width:2;"/>
    </g>
    <g id="line2d_20"/>
    <g id="text_18">
     <!-- bar -->
     <defs>
      <path d="M 44.828125 27.296875 
Q 44.828125 37.75 41.5 43.0625 
Q 38.1875 48.390625 31.6875 48.390625 
Q 25.140625 48.390625 21.765625 43.046875 
Q 18.40625 37.703125 18.40625 27.296875 
Q 18.40625 16.9375 21.765625 11.5625 
Q 25.140625 6.203125 31.6875 6.203125 
Q 38.1875 6.203125 41.5 11.515625 
Q 44.828125 16.84375 44.828125 27.296875 
M 18.40625 47.703125 
Q 20.5625 51.703125 24.34375 53.84375 
Q 28.125 56 33.109375 56 
Q 42.96875 56 48.625 48.40625 
Q 54.296875 40.828125 54.296875 27.484375 
Q 54.296875 13.96875 48.609375 6.265625 
Q 42.921875 -1.421875 33.015625 -1.421875 
Q 28.125 -1.421875 24.390625 0.703125 
Q 20.65625 2.828125 18.40625 6.890625 
L 18.40625 0 
L 9.421875 0 
L 9.421875 75.984375 
L 18.40625 75.984375 
z
" id="DejaVuSansMono-62"/>
      <path d="M 34.28125 27.484375 
L 31.296875 27.484375 
Q 23.4375 27.484375 19.453125 24.71875 
Q 15.484375 21.96875 15.484375 16.5 
Q 15.484375 11.578125 18.453125 8.84375 
Q 21.4375 6.109375 26.703125 6.109375 
Q 34.125 6.109375 38.375 11.25 
Q 42.625 16.40625 42.671875 25.484375 
L 42.671875 27.484375 
z
M 51.703125 31.203125 
L 51.703125 0 
L 42.671875 0 
L 42.671875 8.109375 
Q 39.796875 3.21875 35.421875 0.890625 
Q 31.0625 -1.421875 24.8125 -1.421875 
Q 16.453125 -1.421875 11.46875 3.296875 
Q 6.5 8.015625 6.5 15.921875 
Q 6.5 25.046875 12.625 29.78125 
Q 18.75 34.515625 30.609375 34.515625 
L 42.671875 34.515625 
L 42.671875 35.9375 
Q 42.625 42.484375 39.34375 45.4375 
Q 36.078125 48.390625 28.90625 48.390625 
Q 24.3125 48.390625 19.625 47.0625 
Q 14.9375 45.75 10.5 43.21875 
L 10.5 52.203125 
Q 15.484375 54.109375 20.046875 55.046875 
Q 24.609375 56 28.90625 56 
Q 35.6875 56 40.5 54 
Q 45.3125 52 48.296875 48 
Q 50.140625 45.5625 50.921875 41.96875 
Q 51.703125 38.375 51.703125 31.203125 
" id="DejaVuSansMono-61"/>
      <path d="M 56.390625 43.40625 
Q 53.515625 45.65625 50.53125 46.671875 
Q 47.5625 47.703125 44 47.703125 
Q 35.59375 47.703125 31.140625 42.421875 
Q 26.703125 37.15625 26.703125 27.203125 
L 26.703125 0 
L 17.671875 0 
L 17.671875 54.6875 
L 26.703125 54.6875 
L 26.703125 44 
Q 28.953125 49.8125 33.609375 52.90625 
Q 38.28125 56 44.671875 56 
Q 48 56 50.875 55.171875 
Q 53.765625 54.34375 56.390625 52.59375 
z
" id="DejaVuSansMono-72"/>
     </defs>
     <g transform="translate(83.746 52.941883)scale(0.0833 -0.0833)">
      <use xlink:href="#DejaVuSansMono-62"/>
      <use x="60.205078" xlink:href="#DejaVuSansMono-61"/>
      <use x="120.410156" xlink:href="#DejaVuSansMono-72"/>
     </g>
    </g>
    <g id="line2d_21">
     <path d="M 60.422 62.297514 
L 77.082 62.297514 
" style="fill:none;stroke:#2ca02c;stroke-linecap:square;stroke-width:2;"/>
    </g>
    <g id="line2d_22"/>
    <g id="text_19">
     <!-- baz -->
     <defs>
      <path d="M 11.078125 54.78125 
L 50.78125 54.78125 
L 50.78125 46.578125 
L 19.390625 7.328125 
L 50.78125 7.328125 
L 50.78125 0 
L 9.90625 0 
L 9.90625 8.296875 
L 41.3125 47.609375 
L 11.078125 47.609375 
z
" id="DejaVuSansMono-7a"/>
     </defs>
     <g transform="translate(83.746 65.213014)scale(0.0833 -0.0833)">
      <use xlink:href="#DejaVuSansMono-62"/>
      <use x="60.205078" xlink:href="#DejaVuSansMono-61"/>
      <use x="120.410156" xlink:href="#DejaVuSansMono-7a"/>
     </g>
    </g>
   </g>
  </g>
  <g id="text_20">
   <!-- infowars.com -->
   <defs>
    <path d="M 9.421875 54.6875 
L 18.40625 54.6875 
L 18.40625 0 
L 9.421875 0 
z
M 9.421875 75.984375 
L 18.40625 75.984375 
L 18.40625 64.59375 
L 9.421875 64.59375 
z
" id="DejaVuSans-69"/>
    <path d="M 37.109375 75.984375 
L 37.109375 68.5 
L 28.515625 68.5 
Q 23.6875 68.5 21.796875 66.546875 
Q 19.921875 64.59375 19.921875 59.515625 
L 19.921875 54.6875 
L 34.71875 54.6875 
L 34.71875 47.703125 
L 19.921875 47.703125 
L 19.921875 0 
L 10.890625 0 
L 10.890625 47.703125 
L 2.296875 47.703125 
L 2.296875 54.6875 
L 10.890625 54.6875 
L 10.890625 58.5 
Q 10.890625 67.625 15.140625 71.796875 
Q 19.390625 75.984375 28.609375 75.984375 
z
" id="DejaVuSans-66"/>
    <path d="M 4.203125 54.6875 
L 13.1875 54.6875 
L 24.421875 12.015625 
L 35.59375 54.6875 
L 46.1875 54.6875 
L 57.421875 12.015625 
L 68.609375 54.6875 
L 77.59375 54.6875 
L 63.28125 0 
L 52.6875 0 
L 40.921875 44.828125 
L 29.109375 0 
L 18.5 0 
z
" id="DejaVuSans-77"/>
    <path d="M 48.78125 52.59375 
L 48.78125 44.1875 
Q 44.96875 46.296875 41.140625 47.34375 
Q 37.3125 48.390625 33.40625 48.390625 
Q 24.65625 48.390625 19.8125 42.84375 
Q 14.984375 37.3125 14.984375 27.296875 
Q 14.984375 17.28125 19.8125 11.734375 
Q 24.65625 6.203125 33.40625 6.203125 
Q 37.3125 6.203125 41.140625 7.25 
Q 44.96875 8.296875 48.78125 10.40625 
L 48.78125 2.09375 
Q 45.015625 0.34375 40.984375 -0.53125 
Q 36.96875 -1.421875 32.421875 -1.421875 
Q 20.0625 -1.421875 12.78125 6.34375 
Q 5.515625 14.109375 5.515625 27.296875 
Q 5.515625 40.671875 12.859375 48.328125 
Q 20.21875 56 33.015625 56 
Q 37.15625 56 41.109375 55.140625 
Q 45.0625 54.296875 48.78125 52.59375 
" id="DejaVuSans-63"/>
   </defs>
   <g transform="translate(506.202812 283.040313)scale(0.1 -0.1)">
    <use xlink:href="#DejaVuSans-69"/>
    <use x="27.783203" xlink:href="#DejaVuSans-6e"/>
    <use x="91.162109" xlink:href="#DejaVuSans-66"/>
    <use x="126.367188" xlink:href="#DejaVuSans-6f"/>
    <use x="187.548828" xlink:href="#DejaVuSans-77"/>
    <use x="269.335938" xlink:href="#DejaVuSans-61"/>
    <use x="330.615234" xlink:href="#DejaVuSans-72"/>
    <use x="371.728516" xlink:href="#DejaVuSans-73"/>
    <use x="423.828125" xlink:href="#DejaVuSans-2e"/>
    <use x="455.615234" xlink:href="#DejaVuSans-63"/>
    <use x="510.595703" xlink:href="#DejaVuSans-6f"/>
    <use x="571.777344" xlink:href="#DejaVuSans-6d"/>
   </g>
  </g>
 </g>
 <defs>
  <clipPath id="p9a8c901753">
   <rect height="219.4" width="501.431972" x="52.925" y="26.8"/>
  </clipPath>
 </defs>
</svg>
